<svg xmlns="http://www.w3.org/2000/svg" xmlns:xlink="http://www.w3.org/1999/xlink" width="1080" zoomAndPan="magnify" viewBox="0 0 810 809.999993" height="1080" preserveAspectRatio="xMidYMid meet" version="1.0"><defs><g/><clipPath id="id1"><path d="M 115.503906 182.890625 L 418.503906 182.890625 L 418.503906 626.890625 L 115.503906 626.890625 Z M 115.503906 182.890625 " clip-rule="nonzero"/></clipPath></defs><g clip-path="url(#id1)"><path fill="#545454" d="M 308.9375 182.941406 L 365.976562 182.941406 C 372.492188 182.941406 377.777344 188.207031 377.804688 194.71875 C 377.804688 194.757812 377.804688 194.789062 377.808594 194.824219 L 380.503906 233.421875 C 380.566406 234.257812 381.148438 234.953125 381.957031 235.164062 C 394.253906 238.382812 406.019531 242.890625 417.105469 248.554688 C 417.113281 248.554688 417.121094 248.558594 417.125 248.566406 C 418.183594 249.113281 418.488281 250.484375 417.769531 251.433594 L 390.757812 286.914062 C 390.214844 287.621094 389.261719 287.875 388.445312 287.519531 C 383.835938 285.511719 379.082031 283.773438 374.207031 282.308594 C 367.96875 280.441406 361.53125 279.039062 354.933594 278.136719 C 350.980469 277.59375 346.96875 277.238281 342.910156 277.066406 C 341.105469 276.988281 339.285156 276.949219 337.453125 276.949219 C 333.949219 276.949219 330.472656 277.09375 327.03125 277.371094 C 289.570312 280.390625 256.667969 299.546875 235.28125 327.882812 C 219.109375 349.308594 209.519531 375.980469 209.519531 404.890625 C 209.519531 475.550781 266.796875 532.828125 337.453125 532.828125 C 355.585938 532.828125 372.824219 529.058594 388.449219 522.261719 C 389.265625 521.910156 390.214844 522.160156 390.757812 522.867188 L 393.292969 526.199219 L 417.753906 558.328125 C 418.480469 559.28125 418.171875 560.667969 417.105469 561.222656 C 416.976562 561.289062 416.847656 561.355469 416.71875 561.421875 C 416.546875 561.515625 416.375 561.601562 416.199219 561.6875 C 410.636719 564.484375 404.90625 567 399.023438 569.199219 C 393.464844 571.285156 387.769531 573.09375 381.957031 574.613281 C 381.148438 574.824219 380.566406 575.523438 380.503906 576.355469 L 377.808594 614.953125 C 377.804688 614.988281 377.804688 615.023438 377.804688 615.0625 C 377.777344 621.566406 372.492188 626.835938 365.976562 626.835938 L 308.9375 626.835938 C 302.421875 626.835938 297.132812 621.566406 297.109375 615.0625 C 297.109375 615.023438 297.105469 614.988281 297.105469 614.953125 L 294.40625 576.355469 C 294.347656 575.523438 293.765625 574.824219 292.953125 574.613281 C 277.324219 570.523438 262.535156 564.339844 248.921875 556.359375 C 248.203125 555.9375 247.296875 556.019531 246.664062 556.566406 L 217.453125 581.964844 C 217.429688 581.988281 217.402344 582.007812 217.378906 582.035156 C 212.757812 586.617188 205.296875 586.605469 200.6875 582 L 176.105469 557.414062 L 160.355469 541.660156 C 155.746094 537.058594 155.734375 529.589844 160.316406 524.96875 C 160.339844 524.945312 160.363281 524.921875 160.386719 524.894531 L 185.78125 495.679688 C 186.328125 495.054688 186.410156 494.144531 185.988281 493.421875 C 178.011719 479.808594 171.824219 465.027344 167.734375 449.390625 C 167.523438 448.585938 166.828125 447.996094 165.992188 447.941406 L 127.394531 445.246094 C 127.359375 445.242188 127.324219 445.242188 127.292969 445.242188 C 120.78125 445.210938 115.515625 439.929688 115.515625 433.414062 L 115.515625 376.363281 C 115.515625 369.847656 120.78125 364.566406 127.292969 364.539062 C 127.324219 364.539062 127.359375 364.539062 127.394531 364.53125 L 165.992188 361.835938 C 166.828125 361.78125 167.523438 361.195312 167.734375 360.386719 C 171.824219 344.75 178.011719 329.972656 185.988281 316.351562 C 186.410156 315.636719 186.328125 314.726562 185.78125 314.097656 L 181.5 309.167969 L 160.386719 284.882812 C 160.363281 284.855469 160.339844 284.832031 160.316406 284.808594 C 155.734375 280.1875 155.746094 272.722656 160.355469 268.117188 L 176.105469 252.363281 L 200.6875 227.78125 C 205.296875 223.175781 212.757812 223.160156 217.378906 227.742188 C 217.402344 227.769531 217.429688 227.789062 217.453125 227.8125 L 246.664062 253.210938 C 247.296875 253.757812 248.203125 253.839844 248.921875 253.417969 C 260.683594 246.53125 273.316406 240.96875 286.617188 236.953125 C 288.714844 236.316406 290.828125 235.71875 292.953125 235.164062 C 293.765625 234.953125 294.347656 234.253906 294.40625 233.421875 L 294.808594 227.703125 L 295.140625 222.925781 L 296.140625 208.625 L 297.105469 194.824219 C 297.105469 194.789062 297.109375 194.757812 297.109375 194.71875 C 297.132812 188.207031 302.421875 182.941406 308.9375 182.941406 " fill-opacity="1" fill-rule="nonzero"/></g><g fill="#737373" fill-opacity="1"><g transform="translate(284.993019, 459.672749)"><g><path d="M 90.882812 -89.6875 C 88.496094 -92.675781 85.390625 -94.945312 81.566406 -96.378906 C 77.867188 -97.691406 73.328125 -98.40625 68.074219 -98.40625 L 38.933594 -98.40625 C 33.679688 -98.40625 29.257812 -97.691406 25.558594 -96.378906 C 21.734375 -94.945312 18.628906 -92.675781 16.242188 -89.6875 C 13.972656 -86.703125 12.179688 -82.761719 11.105469 -77.984375 C 10.03125 -73.328125 9.554688 -67.714844 9.554688 -61.027344 L 9.554688 -37.378906 C 9.554688 -30.691406 10.03125 -24.960938 11.105469 -20.300781 C 12.179688 -15.527344 13.972656 -11.585938 16.242188 -8.597656 C 18.628906 -5.492188 21.734375 -3.222656 25.558594 -1.910156 C 29.140625 -0.597656 33.679688 0.121094 38.933594 0.121094 L 68.074219 0.121094 C 73.328125 0.121094 77.867188 -0.597656 81.566406 -1.910156 C 85.390625 -3.222656 88.496094 -5.492188 90.882812 -8.480469 C 93.273438 -11.585938 94.945312 -15.527344 96.019531 -20.300781 C 96.972656 -24.960938 97.570312 -30.691406 97.570312 -37.378906 L 97.570312 -61.027344 C 97.570312 -67.59375 96.972656 -73.328125 96.019531 -77.984375 C 94.945312 -82.761719 93.273438 -86.703125 90.882812 -89.6875 Z M 79.777344 -63.058594 L 79.777344 -35.230469 C 79.777344 -31.765625 79.65625 -28.78125 79.179688 -26.394531 C 78.820312 -24.242188 78.105469 -22.332031 77.148438 -21.136719 C 76.3125 -19.824219 75.121094 -18.988281 73.566406 -18.511719 C 72.015625 -17.914062 69.984375 -17.675781 67.476562 -17.675781 L 39.53125 -17.675781 C 37.023438 -17.675781 34.992188 -17.914062 33.4375 -18.511719 C 31.886719 -18.988281 30.691406 -19.824219 29.855469 -21.136719 C 28.902344 -22.332031 28.304688 -24.242188 27.828125 -26.394531 C 27.46875 -28.78125 27.230469 -31.765625 27.230469 -35.230469 L 27.230469 -63.058594 C 27.230469 -66.519531 27.46875 -69.507812 27.828125 -71.894531 C 28.304688 -74.164062 28.902344 -75.957031 29.855469 -77.269531 C 30.691406 -78.464844 31.886719 -79.300781 33.4375 -79.894531 C 34.992188 -80.375 37.023438 -80.730469 39.53125 -80.730469 L 67.476562 -80.730469 C 69.984375 -80.730469 72.015625 -80.375 73.566406 -79.894531 C 75.121094 -79.300781 76.3125 -78.464844 77.148438 -77.269531 C 78.105469 -75.957031 78.820312 -74.164062 79.179688 -71.894531 C 79.65625 -69.507812 79.777344 -66.519531 79.777344 -63.058594 Z M 79.777344 -63.058594 "/></g></g></g><g fill="#737373" fill-opacity="1"><g transform="translate(398.087961, 459.672749)"><g><path d="M 91.003906 -69.863281 C 91.003906 -69.746094 91.003906 -69.625 91.003906 -69.507812 C 91.003906 -69.386719 91.003906 -69.265625 91.003906 -69.148438 Z M 93.273438 -5.136719 L 72.371094 -40.964844 C 78.222656 -41.679688 82.761719 -44.1875 85.75 -48.25 C 89.09375 -53.144531 90.882812 -60.191406 91.003906 -69.507812 C 90.882812 -78.820312 89.09375 -85.867188 85.75 -90.765625 C 82.164062 -95.898438 76.195312 -98.40625 68.074219 -98.40625 L 13.015625 -98.40625 C 11.941406 -98.40625 9.554688 -98.050781 9.554688 -94.226562 L 9.554688 -84.792969 C 9.554688 -81.089844 11.941406 -80.730469 13.015625 -80.730469 L 64.96875 -80.730469 C 68.074219 -80.730469 70.101562 -79.894531 71.296875 -78.105469 C 72.609375 -76.3125 73.207031 -73.445312 73.207031 -69.507812 C 73.207031 -65.566406 72.609375 -62.699219 71.296875 -60.90625 C 70.101562 -59.117188 68.074219 -58.28125 64.96875 -58.28125 L 13.015625 -58.28125 C 11.941406 -58.28125 9.554688 -57.921875 9.554688 -54.21875 L 9.554688 -4.058594 C 9.554688 -0.359375 11.941406 0.121094 13.015625 0.121094 L 23.886719 0.121094 C 24.960938 0.121094 27.230469 -0.359375 27.230469 -4.058594 L 27.230469 -40.605469 L 52.429688 -40.605469 L 74.042969 -2.269531 C 74.523438 -1.550781 74.878906 -0.957031 75.359375 -0.597656 C 75.957031 -0.121094 76.792969 0.121094 77.867188 0.121094 L 91.003906 0.121094 C 92.4375 0.121094 93.511719 -0.835938 93.75 -2.269531 C 93.871094 -3.464844 93.75 -4.417969 93.273438 -5.136719 Z M 93.273438 -5.136719 "/></g></g></g><g fill="#737373" fill-opacity="1"><g transform="translate(507.480753, 459.672749)"><g><path d="M 81.328125 -21.378906 L 39.292969 -21.378906 C 36.785156 -21.378906 34.753906 -21.734375 33.082031 -22.214844 C 31.527344 -22.808594 30.453125 -23.644531 29.5 -24.839844 C 28.542969 -26.15625 27.828125 -27.945312 27.46875 -30.214844 C 27.347656 -30.8125 27.347656 -31.648438 27.230469 -32.246094 C 27.230469 -32.246094 27.347656 -40.84375 27.46875 -40.84375 L 80.851562 -40.84375 C 81.808594 -40.84375 84.195312 -41.320312 84.195312 -45.023438 L 84.195312 -54.457031 C 84.195312 -58.160156 81.808594 -58.519531 80.851562 -58.519531 L 19.226562 -58.398438 C 15.765625 -58.160156 12.777344 -56.371094 11.105469 -53.382812 C 10.507812 -52.429688 10.03125 -51.472656 9.792969 -50.398438 L 9.554688 -35.351562 L 9.554688 -34.753906 C 9.671875 -29.140625 10.269531 -24.363281 11.105469 -20.421875 C 12.179688 -15.644531 13.972656 -11.703125 16.242188 -8.71875 C 18.628906 -5.613281 21.734375 -3.464844 25.558594 -2.148438 C 29.257812 -0.714844 33.679688 -0.121094 38.933594 -0.121094 L 81.328125 -0.121094 C 82.402344 -0.121094 84.792969 -0.476562 84.792969 -4.179688 L 84.792969 -17.316406 C 84.792969 -21.019531 82.402344 -21.378906 81.328125 -21.378906 Z M 81.449219 -98.644531 L 12.777344 -98.644531 C 11.824219 -98.644531 9.554688 -98.167969 9.554688 -94.347656 L 9.554688 -85.03125 C 9.554688 -81.328125 11.824219 -80.972656 12.777344 -80.972656 L 81.449219 -80.851562 C 82.402344 -80.851562 84.792969 -81.328125 84.792969 -85.03125 L 84.792969 -94.464844 C 84.792969 -98.167969 82.402344 -98.644531 81.449219 -98.644531 Z M 81.449219 -98.644531 "/></g></g></g><g fill="#737373" fill-opacity="1"><g transform="translate(607.778027, 459.672749)"><g/></g></g><g fill="#737373" fill-opacity="1"><g transform="translate(433.992994, 522.837381)"><g><path d="M 36.621094 -39.140625 L 5.175781 -39.140625 C 4.75 -39.140625 3.800781 -38.996094 3.800781 -37.523438 L 3.800781 -33.820312 C 3.800781 -32.25 4.75 -32.109375 5.175781 -32.109375 L 17.382812 -32.109375 L 17.382812 -1.613281 C 17.382812 -0.140625 18.335938 0 18.714844 0 L 23.085938 0 C 23.511719 0 24.414062 -0.140625 24.414062 -1.613281 L 24.414062 -32.109375 L 36.621094 -32.109375 C 37.046875 -32.109375 38 -32.25 38 -33.820312 L 38 -37.523438 C 38 -38.996094 37.046875 -39.140625 36.621094 -39.140625 Z M 36.621094 -39.140625 "/></g></g></g><g fill="#737373" fill-opacity="1"><g transform="translate(478.155373, 522.837381)"><g><path d="M 32.347656 -8.503906 L 15.628906 -8.503906 C 14.628906 -8.503906 13.820312 -8.644531 13.15625 -8.835938 C 12.539062 -9.070312 12.113281 -9.40625 11.730469 -9.878906 C 11.351562 -10.402344 11.066406 -11.113281 10.925781 -12.015625 C 10.878906 -12.253906 10.878906 -12.585938 10.828125 -12.824219 C 10.828125 -12.824219 10.878906 -16.246094 10.925781 -16.246094 L 32.15625 -16.246094 C 32.535156 -16.246094 33.488281 -16.433594 33.488281 -17.90625 L 33.488281 -21.660156 C 33.488281 -23.132812 32.535156 -23.273438 32.15625 -23.273438 L 7.648438 -23.226562 C 6.269531 -23.132812 5.082031 -22.417969 4.417969 -21.230469 C 4.179688 -20.851562 3.988281 -20.472656 3.894531 -20.042969 L 3.800781 -14.058594 L 3.800781 -13.820312 C 3.847656 -11.589844 4.085938 -9.691406 4.417969 -8.121094 C 4.84375 -6.222656 5.558594 -4.65625 6.460938 -3.46875 C 7.410156 -2.234375 8.644531 -1.378906 10.164062 -0.855469 C 11.636719 -0.285156 13.394531 -0.046875 15.484375 -0.046875 L 32.347656 -0.046875 C 32.773438 -0.046875 33.722656 -0.191406 33.722656 -1.664062 L 33.722656 -6.886719 C 33.722656 -8.359375 32.773438 -8.503906 32.347656 -8.503906 Z M 32.394531 -39.234375 L 5.082031 -39.234375 C 4.703125 -39.234375 3.800781 -39.042969 3.800781 -37.523438 L 3.800781 -33.820312 C 3.800781 -32.347656 4.703125 -32.203125 5.082031 -32.203125 L 32.394531 -32.15625 C 32.773438 -32.15625 33.722656 -32.347656 33.722656 -33.820312 L 33.722656 -37.570312 C 33.722656 -39.042969 32.773438 -39.234375 32.394531 -39.234375 Z M 32.394531 -39.234375 "/></g></g></g><g fill="#737373" fill-opacity="1"><g transform="translate(518.043968, 522.837381)"><g><path d="M 32.820312 -39.140625 L 15.53125 -39.140625 C 13.441406 -39.140625 11.636719 -38.855469 10.164062 -38.332031 C 8.644531 -37.761719 7.410156 -36.859375 6.507812 -35.671875 C 5.558594 -34.484375 4.84375 -32.917969 4.417969 -31.015625 C 3.988281 -29.164062 3.800781 -26.882812 3.800781 -24.273438 L 3.800781 -14.867188 C 3.800781 -12.207031 3.988281 -9.925781 4.417969 -8.027344 C 4.84375 -6.175781 5.558594 -4.605469 6.507812 -3.371094 C 7.457031 -2.183594 8.691406 -1.28125 10.164062 -0.761719 C 11.636719 -0.238281 13.441406 0.046875 15.53125 0.046875 L 32.820312 0.046875 C 33.203125 0.046875 34.152344 -0.140625 34.152344 -1.613281 L 34.152344 -5.367188 C 34.152344 -6.839844 33.203125 -7.03125 32.820312 -7.03125 L 15.769531 -7.03125 C 14.773438 -7.03125 13.917969 -7.125 13.300781 -7.363281 C 12.683594 -7.550781 12.253906 -7.882812 11.875 -8.40625 C 11.496094 -8.882812 11.257812 -9.59375 11.066406 -10.496094 C 10.925781 -11.445312 10.828125 -12.632812 10.828125 -14.058594 L 10.828125 -25.125 C 10.828125 -26.550781 10.925781 -27.738281 11.066406 -28.640625 C 11.257812 -29.542969 11.496094 -30.210938 11.875 -30.730469 C 12.253906 -31.253906 12.683594 -31.585938 13.300781 -31.777344 C 13.917969 -32.015625 14.773438 -32.109375 15.769531 -32.109375 L 32.820312 -32.109375 C 33.203125 -32.109375 34.152344 -32.300781 34.152344 -33.820312 L 34.152344 -37.476562 C 34.152344 -38.949219 33.203125 -39.140625 32.820312 -39.140625 Z M 32.820312 -39.140625 "/></g></g></g><g fill="#737373" fill-opacity="1"><g transform="translate(558.35996, 522.837381)"><g><path d="M 34.484375 -39.140625 L 30.113281 -39.140625 C 29.734375 -39.140625 28.832031 -38.949219 28.832031 -37.476562 L 28.832031 -23.273438 L 10.828125 -23.273438 L 10.828125 -37.476562 C 10.828125 -38.949219 9.925781 -39.140625 9.5 -39.140625 L 5.175781 -39.140625 C 4.75 -39.140625 3.800781 -38.949219 3.800781 -37.476562 L 3.800781 -1.613281 C 3.800781 -0.140625 4.75 0.046875 5.175781 0.046875 L 9.5 0.046875 C 9.925781 0.046875 10.828125 -0.140625 10.828125 -1.613281 L 10.828125 -16.246094 L 28.832031 -16.246094 L 28.832031 -1.613281 C 28.832031 -0.140625 29.734375 0.046875 30.113281 0.046875 L 34.484375 0.046875 C 34.910156 0.046875 35.859375 -0.140625 35.859375 -1.613281 L 35.859375 -37.476562 C 35.859375 -38.949219 34.910156 -39.140625 34.484375 -39.140625 Z M 34.484375 -39.140625 "/></g></g></g></svg>